PathFileType	4	(X/Y/Z)	C:\Users\chris\Documents\GitHub\baseballds\vids\pitch5_Sports2D\pitch5_Sports2D_m_person02.trc
DataRate	CameraRate	NumFrames	NumMarkers	Units	OrigDataRate	OrigDataStartFrame	OrigNumFrames
30	30	7	22	m	30	55	149
Frame#	Time	Hip			RHip			RKnee			RAnkle			RBigToe			RSmallToe			RHeel			LHip			LKnee			LAnkle			LBigToe			LSmallToe			LHeel			Neck			Head			Nose			RShoulder			RElbow			RWrist			LShoulder			LElbow			LWrist		
		X1	Y1	Z1	X2	Y2	Z2	X3	Y3	Z3	X4	Y4	Z4	X5	Y5	Z5	X6	Y6	Z6	X7	Y7	Z7	X8	Y8	Z8	X9	Y9	Z9	X10	Y10	Z10	X11	Y11	Z11	X12	Y12	Z12	X13	Y13	Z13	X14	Y14	Z14	X15	Y15	Z15	X16	Y16	Z16	X17	Y17	Z17	X18	Y18	Z18	X19	Y19	Z19	X20	Y20	Z20	X21	Y21	Z21	X22	Y22	Z22
55	1.8333333333333333	2.746014286678506	1.237711866864517	0.0	2.7626790468131035	1.229704038529765	0.0	2.7435922556312904	1.138244605893191	0.0	2.708287031411304	1.070604122159376	0.0	2.7152741487431684	1.0238532547170787	0.0	2.7159161367943074	1.0230507812600502	0.0	2.6946750430629316	1.0598722254445312	0.0	2.7276978417761475	1.2268101263868363	0.0	2.7663616279658574	1.140705002771502	0.0	2.7775165081089077	1.0571891024303464	0.0	2.797008026473937	1.045920452060227	0.0	2.7972814528326517	1.0463221575245045	0.0	2.7759427468162174	1.0349605989923754	0.0	2.761141184470992	1.353278357080196	0.0	2.7642830751983687	1.384745348862578	0.0	2.7676245292055035	1.3768334071923076	0.0	2.798608238013183	1.3376901074966383	0.0	2.822880876117427	1.287226271069958	0.0	2.8013699333260442	1.2823798149240313	0.0	2.7205262043049765	1.3387367540433932	0.0	2.684958267772005	1.3062949758997735	0.0	2.699552829645714	1.268435828612291	0.0
56	1.8666666666666667	2.763854226139265	1.239942398111296	0.0	2.781408473314096	1.2330768156790068	0.0	2.7603253701855763	1.1394104655990562	0.0	2.7189559315454375	1.0871634146088758	0.0	2.7221541505435543	1.0405954067392889	0.0	2.72142757974325	1.0389259844846552	0.0	2.7039483319803446	1.0816373859878914	0.0	2.744710351647493	1.2300532982493166	0.0	2.779929096077547	1.1361728895185104	0.0	2.8016309655103653	1.0563531531002421	0.0	2.8236913142171045	1.0505294751527274	0.0	2.822387752671456	1.0508846690239613	0.0	2.8014387276147827	1.0367033963019239	0.0	2.77472227829113	1.3543223449915442	0.0	2.777514869960433	1.390135419899815	0.0	2.777463252093272	1.3774911015129379	0.0	2.8126066505937066	1.339275778383165	0.0	2.8388630275849436	1.2887686318565836	0.0	2.8192883628786545	1.2783904165699302	0.0	2.7354954975283294	1.339197006430592	0.0	2.7016745549056704	1.3047910286210105	0.0	2.7182236898576404	1.268553462891975	0.0
57	1.9	2.7813796813975564	1.2383253217366654	0.0	2.7999494162478813	1.2328346466051423	0.0	2.7823905887542333	1.1378797944803825	0.0	2.7339858303110676	1.1054201414986278	0.0	2.730207805373867	1.0607542610690701	0.0	2.7275490324509564	1.0615890159838237	0.0	2.716504899939373	1.1054683132336034	0.0	2.7614561845593264	1.2300995831958264	0.0	2.792636591211131	1.1311486195691538	0.0	2.8189139225354167	1.05373301923617	0.0	2.843144914650883	1.0491263356987681	0.0	2.8397642759993964	1.0495300229856543	0.0	2.818676578003846	1.0364711992010476	0.0	2.7885445752233013	1.3514059688441142	0.0	2.7911445771332053	1.394527749651189	0.0	2.789519770907298	1.3755092188958147	0.0	2.826690608590808	1.3372487203873669	0.0	2.852683875063004	1.2866093085283512	0.0	2.8330670556929007	1.2736539700544935	0.0	2.7488858627712824	1.3352409693890164	0.0	2.717514130155707	1.2988363619502254	0.0	2.735417724564544	1.2638907030701723	0.0
58	1.9333333333333333	2.7983399154341457	1.2334912174461519	0.0	2.8175774339507265	1.2293606957499328	0.0	2.808173736804498	1.1331470595672306	0.0	2.753937887193341	1.1214516717766825	0.0	2.7421779273304825	1.0819241993212105	0.0	2.7386457339186427	1.0859974435889348	0.0	2.7347579414476995	1.1268837724092349	0.0	2.7777682254033484	1.227074546075315	0.0	2.8058769519378606	1.1271239654308007	0.0	2.8307982340414624	1.0495566621277947	0.0	2.855809725110814	1.0417883754879989	0.0	2.8511321229301583	1.0427494245748956	0.0	2.8289593434133176	1.0341625744189666	0.0	2.8025755545271718	1.3445795800352864	0.0	2.80503609417184	1.3948473089829516	0.0	2.8035829760688844	1.370524066291102	0.0	2.840575944441443	1.3318514922164546	0.0	2.8650155346609516	1.2818660541452065	0.0	2.845968251632852	1.2675383324211629	0.0	2.7617467500254516	1.327525367989073	0.0	2.7327259298955533	1.2892635314659662	0.0	2.752930751869283	1.2565448920354834	0.0
59	1.9666666666666666	2.814151165011979	1.2266007359449624	0.0	2.8332425826874528	1.223712330086612	0.0	2.834222470424046	1.1258020789346943	0.0	2.77680128155311	1.1314751447679998	0.0	2.7593571926811227	1.1000778884430575	0.0	2.7572115457929995	1.1049273768277725	0.0	2.7585662463491945	1.14127888460303	0.0	2.7932128406034766	1.2218722128594333	0.0	2.819760846050347	1.12430985693503	0.0	2.8393794974631144	1.0453291728394953	0.0	2.8644206302677135	1.033195150373283	0.0	2.8588745963648083	1.0358073129262917	0.0	2.8351373625730556	1.03206908626632	0.0	2.8165900673796065	1.335001875092107	0.0	2.818696070966816	1.3889434660259283	0.0	2.8186246032809703	1.3621965048294147	0.0	2.8537954130106193	1.3238802263512381	0.0	2.8766581680217276	1.2751598681275464	0.0	2.8628246710820875	1.2576350695126843	0.0	2.7755923499644664	1.3174375036607264	0.0	2.74752886638984	1.2773684381938675	0.0	2.7710764411436895	1.2495841079498786	0.0
60	2.0	2.8280090205504678	1.2193723394811622	0.0	2.846621663522463	1.2180777488335819	0.0	2.8585133042389046	1.1192960625026005	0.0	2.8001426174531057	1.134966425942526	0.0	2.780703826859678	1.1104812380821816	0.0	2.782090502806143	1.1139096868116736	0.0	2.784649376170223	1.1471630741186998	0.0	2.807170717077075	1.2165241253519166	0.0	2.83336600145427	1.1225654504387894	0.0	2.845630449837697	1.0424199971301162	0.0	2.869938494704458	1.02819895221957	0.0	2.863838335004409	1.0322418360915153	0.0	2.839384374828218	1.031184822454383	0.0	2.8305199959219807	1.3253093523051933	0.0	2.832173689694568	1.3799254443642022	0.0	2.8340488268370323	1.3524614872821843	0.0	2.8665087757212855	1.3156484106379833	0.0	2.887631525635317	1.2686558262782552	0.0	2.8838280193731824	1.24423135562528	0.0	2.790602805782472	1.3072449695958548	0.0	2.7623812248152424	1.265255638265848	0.0	2.7893912410047417	1.2443371079128418	0.0
61	2.033333333333333	2.8402302112965137	1.2138735974226433	0.0	2.8587463429548396	1.21471575331186	0.0	2.881128543517897	1.1174542152397682	0.0	2.822803209617212	1.1338888263164442	0.0	2.8051452424187935	1.1116134422523118	0.0	2.810947408727569	1.1128674719709912	0.0	2.809287124545498	1.146364055452938	0.0	2.819709169591495	1.2129272203770078	0.0	2.8453884235365616	1.1212021762111948	0.0	2.849480683106093	1.0408020518884762	0.0	2.871091854262764	1.0264810417155326	0.0	2.8656115219428715	1.030815205787196	0.0	2.8424685199471877	1.030633799451393	0.0	2.8444227323132445	1.318727284988938	0.0	2.8462585513061383	1.3732168675201295	0.0	2.8493462325583607	1.3449952428841554	0.0	2.87927391524443	1.3105736971575688	0.0	2.898199809727023	1.2665406997297846	0.0	2.904144320602462	1.2330630902183886	0.0	2.8058919058751304	1.2997280324855298	0.0	2.7783439932887037	1.2552062864201126	0.0	2.8084650640818603	1.2408379933495524	0.0
